HIERARCHY
ROOT reference
{
  OFFSET 0 0 0
  CHANNELS 6 Xposition Yposition Zposition Zrotation Xrotation Yrotation
  JOINT Hips
  {
    OFFSET 4.51486 89.0038 97.2318
    CHANNELS 6 Xposition Yposition Zposition Zrotation Xrotation Yrotation
    JOINT Spine
    {
      OFFSET 0 7.57377 0
      CHANNELS 6 Xposition Yposition Zposition Zrotation Xrotation Yrotation
      JOINT Spine1
      {
        OFFSET 0 21.6353 0
        CHANNELS 6 Xposition Yposition Zposition Zrotation Xrotation Yrotation
        JOINT Neck
        {
          OFFSET 0 21.5464 1.95876
          CHANNELS 6 Xposition Yposition Zposition Zrotation Xrotation Yrotation
          JOINT Head
          {
            OFFSET 0 12.9308 -1.84726
            CHANNELS 6 Xposition Yposition Zposition Zrotation Xrotation Yrotation
            End Site
            {
              OFFSET 0 23.0907 0
            }
          }
        }
        JOINT LeftShoulder
        {
          OFFSET 3.70822 19.5981 -0.368577
          CHANNELS 6 Xposition Yposition Zposition Zrotation Xrotation Yrotation
          JOINT LeftArm
          {
            OFFSET 11.1726 0 0
            CHANNELS 6 Xposition Yposition Zposition Zrotation Xrotation Yrotation
            JOINT LeftForeArm
            {
              OFFSET 28.6421 0 0
              CHANNELS 6 Xposition Yposition Zposition Zrotation Xrotation Yrotation
              JOINT LeftHand
              {
                OFFSET 23.9346 0 0
                CHANNELS 6 Xposition Yposition Zposition Zrotation Xrotation Yrotation
                End Site
                {
                  OFFSET 13.8545 0 0
                }
              }
            }
          }
        }
        JOINT RightShoulder
        {
          OFFSET -3.63664 19.5981 -0.368577
          CHANNELS 6 Xposition Yposition Zposition Zrotation Xrotation Yrotation
          JOINT RightArm
          {
            OFFSET -11.1726 0 0
            CHANNELS 6 Xposition Yposition Zposition Zrotation Xrotation Yrotation
            JOINT RightForeArm
            {
              OFFSET -28.6421 0 0
              CHANNELS 6 Xposition Yposition Zposition Zrotation Xrotation Yrotation
              JOINT RightHand
              {
                OFFSET -23.9346 0 0
                CHANNELS 6 Xposition Yposition Zposition Zrotation Xrotation Yrotation
                End Site
                {
                  OFFSET -13.8545 0 0
                }
              }
            }
          }
        }
      }
    }
    JOINT LeftUpLeg
    {
      OFFSET 9.2363 0 0
      CHANNELS 6 Xposition Yposition Zposition Zrotation Xrotation Yrotation
      JOINT LeftLeg
      {
        OFFSET 0 -40.7061 0
        CHANNELS 6 Xposition Yposition Zposition Zrotation Xrotation Yrotation
        JOINT LeftFoot
        {
          OFFSET 0 -40.9975 0
          CHANNELS 6 Xposition Yposition Zposition Zrotation Xrotation Yrotation
          JOINT LeftToeBase
          {
            OFFSET 0 -6.00359 13.8545
            CHANNELS 6 Xposition Yposition Zposition Zrotation Xrotation Yrotation
            End Site
            {
              OFFSET 0 0 3.69452
            }
          }
        }
      }
    }
    JOINT RightUpLeg
    {
      OFFSET -9.2363 0 0
      CHANNELS 6 Xposition Yposition Zposition Zrotation Xrotation Yrotation
      JOINT RightLeg
      {
        OFFSET 0 -40.7061 0
        CHANNELS 6 Xposition Yposition Zposition Zrotation Xrotation Yrotation
        JOINT RightFoot
        {
          OFFSET 0 -40.9975 0
          CHANNELS 6 Xposition Yposition Zposition Zrotation Xrotation Yrotation
          JOINT RightToeBase
          {
            OFFSET 0 -6.00359 13.8545
            CHANNELS 6 Xposition Yposition Zposition Zrotation Xrotation Yrotation
            End Site
            {
              OFFSET 0 0 3.69452
            }
          }
        }
      }
    }
  }
}
MOTION
Frames:	11
Frame Time:	0.004
0 0 0 0 0 -0 -19.2467 82.04 -120.88 -0.0488921 4.91973 9.17053 0 7.57377 0 0.121223 14.2793 -1.35397 -3.55271e-015 21.6353 2.84217e-014 1.67038 10.2349 -1.48845 0 21.5464 1.95876 -9.7034 4.66861 -1.5093 -7.10543e-015 12.9308 -1.84726 9.85921 25.0164 -1.33907 3.70822 19.5981 -0.368577 11.3573 15.7901 -10.5265 11.1726 -2.84217e-014 2.84217e-014 -75.643 52.4513 15.6874 28.6421 0 0 22.5724 -25.9712 -68.8275 23.9346 0 -7.10543e-015 11.1229 -11.7121 -6.65626 -3.63664 19.5981 -0.368577 -2.43087 15.7621 -8.20404 -11.1726 0 0 83.1658 49.2801 -20.1585 -28.6421 0 0 -24.514 -19.9711 59.3106 -23.9346 -1.42109e-014 0 -23.6851 -3.98251 -10.2402 9.2363 1.42109e-014 0 -4.90617 -22.1273 4.40587 3.55271e-015 -40.7061 0 3.56992 18.5081 -0.601399 3.55271e-015 -40.9975 1.42109e-014 -6.59289 -14.1277 -9.55849 1.77636e-015 -6.00359 13.8545 9.93923e-016 1.59028e-015 -2.38542e-015 -9.2363 -1.42109e-014 -2.84217e-014 -4.25276 -29.2493 0.104562 0 -40.7061 -1.42109e-014 9.83101 41.9419 4.9124 0 -40.9975 -1.42109e-014 0.106049 -21.9652 -12.7991 0 -6.00359 13.8545 -7.45443e-016 -7.95139e-016 -0 
0 0 0 0 0 -0 -19.2367 82.049 -120.768 -0.106744 5.2305 9.11586 -7.10543e-015 7.57377 2.84217e-014 0.179822 14.4094 -1.2769 0 21.6353 -2.84217e-014 1.71472 10.2368 -1.40781 0 21.5464 1.95876 -9.85346 4.22562 -1.59472 -3.55271e-015 12.9308 -1.84726 9.9254 25.0084 -1.37717 3.70822 19.5981 -0.368577 11.4182 15.9189 -10.5086 11.1726 0 -2.84217e-014 -75.973 52.3669 16.0499 28.6421 -2.84217e-014 0 22.6975 -26.1273 -69.3875 23.9346 0 0 11.0472 -11.6257 -6.67762 -3.63664 19.5981 -0.368577 -2.51701 15.9135 -8.116 -11.1726 0 0 83.8719 49.3582 -20.8275 -28.6421 0 0 -24.3999 -20.5137 59.665 -23.9346 -1.42109e-014 0 -23.7292 -4.34676 -11.065 9.2363 -1.42109e-014 0 -4.89808 -22.5285 4.41615 3.55271e-015 -40.7061 0 3.63792 18.8162 -0.302857 1.77636e-015 -40.9975 0 -7.02443 -14.1946 -9.67742 -1.77636e-015 -6.00359 13.8545 -5.96354e-016 0 -7.95139e-016 -9.2363 1.42109e-014 2.84217e-014 -4.07486 -29.7836 0.647734 0 -40.7061 0 9.88365 41.3118 4.34398 0 -40.9975 0 0.620218 -21.9036 -12.5601 -1.77636e-015 -6.00359 13.8545 4.47266e-016 1.19271e-015 -7.95139e-016 
0 0 0 0 0 -0 -19.2275 82.0529 -120.657 -0.156623 5.54852 9.05265 0 7.57377 0 0.240022 14.5327 -1.19631 0 21.6353 2.84217e-014 1.7276 10.2624 -1.3209 -3.55271e-015 21.5464 1.95876 -9.96809 3.70946 -1.70989 7.10543e-015 12.9308 -1.84726 9.95845 25.0017 -1.43998 3.70822 19.5981 -0.368577 11.4729 16.0126 -10.4563 11.1726 0 0 -76.3467 52.3617 16.3784 28.6421 2.84217e-014 -1.42109e-014 22.9678 -26.3367 -69.7763 23.9346 -1.42109e-014 0 10.9231 -11.5458 -6.78577 -3.63664 19.5981 -0.368577 -2.56837 15.9667 -8.07793 -11.1726 1.42109e-014 0 84.827 49.6103 -21.6659 -28.6421 -1.42109e-014 0 -24.5595 -21.3089 59.8079 -23.9346 -7.10543e-015 0 -23.5508 -4.90198 -11.8892 9.2363 0 0 -4.89039 -22.9438 4.39586 0 -40.7061 0 3.69199 19.1622 -0.349516 1.77636e-015 -40.9975 0 -7.1257 -14.2866 -9.51145 1.77636e-015 -6.00359 13.8545 -5.96354e-016 0 -1.59028e-015 -9.2363 -1.42109e-014 0 -3.91602 -30.3143 1.1242 7.10543e-015 -40.7061 -1.42109e-014 9.89601 40.7063 3.95062 0 -40.9975 0 0.653108 -21.5895 -12.5355 1.77636e-015 -6.00359 13.8545 -6.95746e-016 3.97569e-016 -0 
0 0 0 0 0 -0 -19.2182 82.0464 -120.552 -0.183675 5.90221 8.97968 0 7.57377 2.84217e-014 0.260667 14.6371 -1.10787 -1.77636e-015 21.6353 2.84217e-014 1.7423 10.2537 -1.23079 0 21.5464 1.95876 -10.037 3.22677 -1.81803 0 12.9308 -1.84726 9.92731 24.9553 -1.49424 3.70822 19.5981 -0.368577 11.506 16.1886 -10.3857 11.1726 0 0 -76.5711 52.3356 16.4927 28.6421 0 0 23.2356 -26.5336 -70.1033 23.9346 0 7.10543e-015 10.7572 -11.4538 -6.7544 -3.63664 19.5981 -0.368577 -2.59466 16.0177 -8.08074 -11.1726 0 0 85.7743 49.9628 -22.4382 -28.6421 0 0 -24.7309 -22.1379 59.8312 -23.9346 0 0 -23.5132 -5.52616 -12.6327 9.2363 0 0 -4.89688 -23.4517 4.29376 0 -40.7061 -1.42109e-014 3.68972 19.6686 -0.567713 0 -40.9975 0 -7.13171 -14.4037 -9.05946 0 -6.00359 13.8545 5.96354e-016 1.59028e-015 -0 -9.2363 0 2.84217e-014 -3.78572 -30.8795 1.66876 0 -40.7061 0 9.97717 40.1129 3.40908 0 -40.9975 0 0.277626 -21.2512 -12.5619 -3.55271e-015 -6.00359 13.8545 -2.68359e-015 -7.95139e-016 -1.59028e-015 
0 0 0 0 0 -0 -19.2091 82.0333 -120.445 -0.216671 6.25955 8.9122 0 7.57377 0 0.284539 14.7622 -1.01713 1.77636e-015 21.6353 0 1.76209 10.1875 -1.1374 1.77636e-015 21.5464 1.95876 -10.08 2.73331 -1.91326 7.10543e-015 12.9308 -1.84726 9.84578 24.9539 -1.53653 3.70822 19.5981 -0.368577 11.4913 16.3027 -10.3401 11.1726 1.42109e-014 0 -76.8273 52.2859 16.6523 28.6421 0 0 23.4204 -26.6596 -70.4109 23.9346 -1.42109e-014 -7.10543e-015 10.8036 -11.3496 -6.60309 -3.63664 19.5981 -0.368577 -2.60591 16.1789 -8.01107 -11.1726 1.42109e-014 -2.84217e-014 86.537 50.1527 -22.9755 -28.6421 1.42109e-014 -1.42109e-014 -24.8378 -22.9127 59.828 -23.9346 0 1.42109e-014 -23.3379 -6.18403 -13.2743 9.2363 0 0 -4.92393 -23.9755 4.21379 -3.55271e-015 -40.7061 1.42109e-014 3.74398 20.1413 -0.383488 0 -40.9975 -1.42109e-014 -7.35019 -14.4919 -9.2812 0 -6.00359 13.8545 -2.18663e-015 1.59028e-015 7.95139e-016 -9.2363 0 0 -3.64992 -31.4835 2.10332 -3.55271e-015 -40.7061 0 9.98237 39.6263 3.06286 7.10543e-015 -40.9975 0 0.0332879 -20.9813 -12.7189 0 -6.00359 13.8545 -3.27995e-015 0 -1.59028e-015 
0 0 0 0 0 -0 -19.1975 82.0166 -120.341 -0.246029 6.61736 8.83869 -7.10543e-015 7.57377 0 0.316445 14.9388 -0.93573 0 21.6353 2.84217e-014 1.74735 9.9604 -1.04659 3.55271e-015 21.5464 1.95876 -10.1393 2.39438 -1.98385 0 12.9308 -1.84726 9.82902 24.8777 -1.56328 3.70822 19.5981 -0.368577 11.4448 16.501 -10.3434 11.1726 1.42109e-014 0 -77.0608 52.1864 16.7565 28.6421 0 0 23.5372 -26.786 -70.6356 23.9346 0 0 10.9525 -11.3294 -6.48323 -3.63664 19.5981 -0.368577 -2.49708 16.4717 -7.87764 -11.1726 -1.42109e-014 0 87.043 50.2363 -23.3033 -28.6421 0 1.42109e-014 -24.8264 -23.6553 59.8993 -23.9346 -7.10543e-015 -1.42109e-014 -23.3837 -6.8023 -14.0592 9.2363 1.42109e-014 0 -4.96643 -24.4847 4.13664 0 -40.7061 0 3.81832 20.5683 -0.154345 1.77636e-015 -40.9975 0 -7.19134 -14.4104 -9.41322 1.77636e-015 -6.00359 13.8545 -5.96354e-016 -1.59028e-015 -1.59028e-015 -9.2363 0 0 -3.52214 -32.0975 2.39314 0 -40.7061 -1.42109e-014 9.87696 39.2171 2.88611 3.55271e-015 -40.9975 2.84217e-014 -0.255576 -20.6901 -12.8401 -1.77636e-015 -6.00359 13.8545 -2.08724e-015 7.95139e-016 -0 
0 0 0 0 0 -0 -19.1854 81.9896 -120.237 -0.265329 6.98784 8.75127 0 7.57377 0 0.361566 15.0647 -0.865099 1.77636e-015 21.6353 0 1.66046 9.82195 -0.960036 1.77636e-015 21.5464 1.95876 -10.1492 2.03766 -2.05022 -3.55271e-015 12.9308 -1.84726 9.81339 24.7077 -1.58144 3.70822 19.5981 -0.368577 11.4449 16.6759 -10.3164 11.1726 1.42109e-014 2.84217e-014 -77.257 52.0987 16.7127 28.6421 0 -1.42109e-014 23.6781 -26.9151 -70.75 23.9346 0 0 11.0325 -11.3215 -6.34022 -3.63664 19.5981 -0.368577 -2.35237 16.6195 -7.80542 -11.1726 -1.42109e-014 0 87.5628 50.5095 -23.5875 -28.6421 -1.42109e-014 0 -24.8001 -24.4117 59.8296 -23.9346 7.10543e-015 0 -23.6116 -7.45682 -14.8946 9.2363 -1.42109e-014 -2.84217e-014 -5.01065 -25.052 4.03806 1.77636e-015 -40.7061 0 3.87414 21.109 -0.121471 1.77636e-015 -40.9975 0 -7.20039 -14.5204 -9.13113 1.77636e-015 -6.00359 13.8545 -9.93923e-016 -1.59028e-015 -0 -9.2363 -1.42109e-014 0 -3.388 -32.7389 2.71069 3.55271e-015 -40.7061 0 9.77281 38.8476 2.67091 7.10543e-015 -40.9975 -1.42109e-014 0.0385272 -20.7274 -12.7946 0 -6.00359 13.8545 9.93923e-017 -7.95139e-016 7.95139e-016 
0 0 0 0 0 -0 -19.1741 81.9522 -120.129 -0.280212 7.36842 8.66954 0 7.57377 0 0.381863 15.1516 -0.789601 0 21.6353 0 1.60886 9.74715 -0.876035 0 21.5464 1.95876 -10.1285 1.63366 -2.11244 0 12.9308 -1.84726 9.71738 24.4838 -1.58391 3.70822 19.5981 -0.368577 11.415 16.7539 -10.2904 11.1726 0 0 -77.5372 52.0902 16.7135 28.6421 0 0 23.8994 -27.0736 -70.7282 23.9346 0 0 11.1413 -11.3424 -6.31864 -3.63664 19.5981 -0.368577 -2.30194 16.6419 -7.75964 -11.1726 1.42109e-014 0 88.2408 50.8308 -23.9318 -28.6421 0 0 -24.88 -25.1942 59.6212 -23.9346 -1.42109e-014 -1.42109e-014 -23.6301 -8.21652 -15.3888 9.2363 1.42109e-014 0 -5.07832 -25.6239 3.94308 -1.77636e-015 -40.7061 1.42109e-014 3.96485 21.6174 0.136175 1.77636e-015 -40.9975 0 -7.56942 -14.6969 -9.28792 -1.77636e-015 -6.00359 13.8545 1.98785e-016 0 7.95139e-016 -9.2363 0 0 -3.257 -33.4092 3.03019 0 -40.7061 0 9.67845 38.5493 2.42042 -3.55271e-015 -40.9975 0 0.29729 -20.822 -12.6844 0 -6.00359 13.8545 -2.98177e-016 -7.95139e-016 1.59028e-015 
0 0 0 0 0 -0 -19.1585 81.9063 -120.016 -0.286642 7.74521 8.58262 0 7.57377 0 0.373978 15.2758 -0.701345 3.55271e-015 21.6353 0 1.60863 9.57863 -0.786045 -1.77636e-015 21.5464 1.95876 -10.1637 1.24803 -2.18242 7.10543e-015 12.9308 -1.84726 9.64711 24.3205 -1.59626 3.70822 19.5981 -0.368577 11.3172 16.8691 -10.3039 11.1726 0 -2.84217e-014 -77.6893 51.974 16.5958 28.6421 0 0 23.9121 -27.1189 -70.7827 23.9346 0 0 11.4498 -11.3741 -6.23746 -3.63664 19.5981 -0.368577 -2.2392 16.6576 -7.80122 -11.1726 0 0 88.855 51.1877 -24.2203 -28.6421 0 0 -25.0427 -25.8807 59.3321 -23.9346 -7.10543e-015 0 -23.9357 -8.82275 -15.8114 9.2363 1.42109e-014 0 -5.14789 -26.1948 3.79343 -1.77636e-015 -40.7061 0 4.01631 22.1373 0.471753 3.55271e-015 -40.9975 -1.42109e-014 -7.15992 -14.5991 -9.65941 0 -6.00359 13.8545 1.39149e-015 1.59028e-015 7.95139e-016 -9.2363 0 -2.84217e-014 -3.13436 -34.0674 3.26058 -3.55271e-015 -40.7061 -1.42109e-014 9.52423 38.2994 2.27418 -3.55271e-015 -40.9975 0 0.211089 -20.7511 -12.546 5.32907e-015 -6.00359 13.8545 -2.18663e-015 0 -0 
0 0 0 0 0 -0 -19.1373 81.8606 -119.907 -0.269911 8.13835 8.48685 0 7.57377 -2.84217e-014 0.33879 15.3776 -0.60916 -1.77636e-015 21.6353 0 1.61044 9.41399 -0.696207 1.77636e-015 21.5464 1.95876 -10.1552 0.814818 -2.23643 -1.06581e-014 12.9308 -1.84726 9.51958 24.2098 -1.59482 3.70822 19.5981 -0.368577 11.2245 16.9742 -10.3218 11.1726 -1.42109e-014 2.84217e-014 -77.8478 51.9533 16.3939 28.6421 0 0 23.975 -27.2156 -70.6762 23.9346 0 7.10543e-015 11.7244 -11.4637 -6.047 -3.63664 19.5981 -0.368577 -2.15634 16.6394 -7.8873 -11.1726 1.42109e-014 0 89.3553 51.5895 -24.3764 -28.6421 -1.42109e-014 -1.42109e-014 -25.2745 -26.4939 58.9353 -23.9346 -7.10543e-015 0 -23.9698 -9.37336 -16.2742 9.2363 0 0 -5.24098 -26.8431 3.56684 1.77636e-015 -40.7061 0 4.02995 22.8042 0.636844 -1.77636e-015 -40.9975 1.42109e-014 -6.66056 -14.4573 -9.78873 1.77636e-015 -6.00359 13.8545 5.96354e-016 1.59028e-015 -7.95139e-016 -9.2363 0 -2.84217e-014 -3.05451 -34.7514 3.40364 3.55271e-015 -40.7061 0 9.36059 38.1245 2.29336 -3.55271e-015 -40.9975 1.42109e-014 -0.257667 -20.6734 -12.5709 -5.32907e-015 -6.00359 13.8545 1.59028e-015 7.95139e-016 -7.95139e-016 
0 0 0 0 0 -0 -19.1173 81.8018 -119.803 -0.251462 8.53854 8.36949 0 7.57377 0 0.31337 15.509 -0.522744 -1.77636e-015 21.6353 -2.84217e-014 1.56487 9.18203 -0.605861 1.77636e-015 21.5464 1.95876 -10.0912 0.440358 -2.27259 -3.55271e-015 12.9308 -1.84726 9.32819 24.003 -1.57519 3.70822 19.5981 -0.368577 11.1243 17.0671 -10.3216 11.1726 -1.42109e-014 0 -78.1065 52.0256 16.2187 28.6421 0 0 24.1613 -27.3185 -70.3475 23.9346 1.42109e-014 0 12.301 -11.5677 -5.98206 -3.63664 19.5981 -0.368577 -2.03053 16.7053 -7.89389 -11.1726 -1.42109e-014 0 89.8075 51.9975 -24.3999 -28.6421 0 1.42109e-014 -25.7277 -27.1247 58.3538 -23.9346 0 1.42109e-014 -24.0655 -9.89368 -16.5878 9.2363 0 0 -5.32912 -27.5368 3.34562 0 -40.7061 1.42109e-014 4.04279 23.5414 0.787284 -1.77636e-015 -40.9975 0 -6.78704 -14.4975 -9.82339 0 -6.00359 13.8545 -1.39149e-015 0 -0 -9.2363 0 0 -2.94001 -35.4932 3.54774 3.55271e-015 -40.7061 0 9.16259 38.0469 2.31049 -3.55271e-015 -40.9975 0 -0.580579 -20.7043 -12.5423 0 -6.00359 13.8545 -1.19271e-015 1.59028e-015 7.95139e-016 
